<svg width="40" height="40" viewBox="0 0 40 40" fill="none" xmlns="http://www.w3.org/2000/svg">
<path fill-rule="evenodd" clip-rule="evenodd" d="M5.07812 22.829L8.25521 23.8376C10.5199 16.7038 14.3719 13.3333 20 13.3333C19.0795 13.3333 18.3333 12.5871 18.3333 11.6667C18.3333 10.7462 19.0795 10 20 10C20.9205 10 21.6667 10.7462 21.6667 11.6667C21.6667 12.5869 20.9209 13.3329 20.0009 13.3333C25.6285 13.3337 29.4802 16.7041 31.7448 23.8376L34.9219 22.829C32.2483 14.4073 27.2114 10 20 10C12.7886 10 7.75168 14.4073 5.07812 22.829Z" fill="#282828"/>
<path fill-rule="evenodd" clip-rule="evenodd" d="M20 16.6667C22.177 16.6667 24.0291 15.2753 24.7155 13.3333H30.4459C31.0223 14.3297 32.0995 15 33.3333 15C35.1743 15 36.6667 13.5076 36.6667 11.6667C36.6667 9.82572 35.1743 8.33334 33.3333 8.33334C32.0995 8.33334 31.0223 9.00367 30.4459 10H24.7155C24.0291 8.05802 22.177 6.66667 20 6.66667C17.823 6.66667 15.9709 8.05802 15.2845 10H9.55406C8.97772 9.00367 7.90048 8.33334 6.66667 8.33334C4.82572 8.33334 3.33334 9.82572 3.33334 11.6667C3.33334 13.5076 4.82572 15 6.66667 15C7.90048 15 8.97772 14.3297 9.55406 13.3333H15.2845C15.9709 15.2753 17.823 16.6667 20 16.6667ZM21.6667 11.6667C21.6667 12.5872 20.9205 13.3333 20 13.3333C19.0795 13.3333 18.3333 12.5872 18.3333 11.6667C18.3333 10.7462 19.0795 10 20 10C20.9205 10 21.6667 10.7462 21.6667 11.6667ZM6.66667 31.6667C9.4281 31.6667 11.6667 29.4281 11.6667 26.6667C11.6667 23.9052 9.4281 21.6667 6.66667 21.6667C3.90525 21.6667 1.66667 23.9052 1.66667 26.6667C1.66667 29.4281 3.90525 31.6667 6.66667 31.6667ZM8.33332 26.6667C8.33332 27.5872 7.58713 28.3333 6.66665 28.3333C5.74618 28.3333 4.99998 27.5872 4.99998 26.6667C4.99998 25.7462 5.74618 25 6.66665 25C7.58713 25 8.33332 25.7462 8.33332 26.6667ZM33.3333 31.6667C36.0947 31.6667 38.3333 29.4281 38.3333 26.6667C38.3333 23.9053 36.0947 21.6667 33.3333 21.6667C30.5719 21.6667 28.3333 23.9053 28.3333 26.6667C28.3333 29.4281 30.5719 31.6667 33.3333 31.6667ZM35 26.6667C35 27.5872 34.2538 28.3333 33.3333 28.3333C32.4128 28.3333 31.6667 27.5872 31.6667 26.6667C31.6667 25.7462 32.4128 25 33.3333 25C34.2538 25 35 25.7462 35 26.6667Z" fill="white"/>
</svg>
