<svg width="40" height="40" viewBox="0 0 40 40" fill="none" xmlns="http://www.w3.org/2000/svg">
<path fill-rule="evenodd" clip-rule="evenodd" d="M12.4969 14.9979H7.49479C6.1135 14.9979 4.99375 13.8781 4.99375 12.4968V7.49475C4.99375 6.11347 6.1135 4.99371 7.49479 4.99371H12.4969C13.8782 4.99371 14.9979 6.11347 14.9979 7.49475V12.4968C14.9979 13.8781 13.8782 14.9979 12.4969 14.9979Z" stroke="#282828" stroke-width="2" stroke-linecap="round" stroke-linejoin="round"/>
<path fill-rule="evenodd" clip-rule="evenodd" d="M32.5052 14.9979H22.501C21.1198 14.9979 20 13.8781 20 12.4968V7.49475C20 6.11347 21.1198 4.99371 22.501 4.99371H32.5052C33.8865 4.99371 35.0063 6.11347 35.0063 7.49475V12.4968C35.0063 13.8781 33.8865 14.9979 32.5052 14.9979Z" stroke="#282828" stroke-width="2" stroke-linecap="round" stroke-linejoin="round"/>
<path d="M19.2847 22.501L12.0784 29.5556L9.71238 27.1863" stroke="white" stroke-width="2" stroke-linecap="round" stroke-linejoin="round"/>
<path d="M13.9258 20.7153H9.14548C6.85254 20.7153 4.99375 22.5741 4.99375 24.867V30.8545C4.99375 33.1475 6.85254 35.0063 9.14548 35.0063H15.133C17.4259 35.0063 19.2847 33.1475 19.2847 30.8545V29.6474" stroke="#282828" stroke-width="2" stroke-linecap="round" stroke-linejoin="round"/>
<path fill-rule="evenodd" clip-rule="evenodd" d="M32.5052 30.0042H27.5031C26.1218 30.0042 25.0021 28.8844 25.0021 27.5031V22.501C25.0021 21.1198 26.1218 20 27.5031 20H32.5052C33.8865 20 35.0063 21.1198 35.0063 22.501V27.5031C35.0063 28.8844 33.8865 30.0042 32.5052 30.0042Z" stroke="#282828" stroke-width="2" stroke-linecap="round" stroke-linejoin="round"/>
</svg>
