<svg width="38" height="38" viewBox="0 0 38 38" fill="none" xmlns="http://www.w3.org/2000/svg">
<path d="M30.8532 15.4265V19.2832C30.8532 20.5612 29.8172 21.5972 28.5392 21.5972H8.48461C7.20663 21.5972 6.17062 20.5612 6.17062 19.2832V7.71325C6.17062 6.00927 7.55197 4.62793 9.25594 4.62793H13.8839" stroke="#282828" stroke-width="1.85119" stroke-linecap="round" stroke-linejoin="round"/>
<path fill-rule="evenodd" clip-rule="evenodd" d="M29.3091 32.3958H7.71474C6.74676 32.3958 5.8349 31.9414 5.25196 31.1687C4.66903 30.3959 4.48262 29.3943 4.74851 28.4635L6.39037 22.7161C6.57957 22.0538 7.18493 21.5972 7.87373 21.5972H29.1501C29.8389 21.5972 30.4442 22.0538 30.6334 22.7161L32.2753 28.4635C32.5412 29.3943 32.3548 30.3959 31.7718 31.1687C31.1889 31.9414 30.2771 32.3958 29.3091 32.3958Z" stroke="#282828" stroke-width="1.85119" stroke-linecap="round" stroke-linejoin="round"/>
<path d="M15.4266 27.7679H21.5972" stroke="white" stroke-width="1.85119" stroke-linecap="round" stroke-linejoin="round"/>
<path d="M23.1399 10.7986L20.0546 7.71325L23.1399 4.62793" stroke="white" stroke-width="1.85119" stroke-linecap="round" stroke-linejoin="round"/>
<path d="M27.7679 4.62793L30.8532 7.71325L27.7679 10.7986" stroke="white" stroke-width="1.85119" stroke-linecap="round" stroke-linejoin="round"/>
</svg>
